<mxfile host="app.diagrams.net" agent="Mozilla/5.0 (Macintosh; Intel Mac OS X 10_15_7) AppleWebKit/537.36 (KHTML, like Gecko) Chrome/134.0.0.0 Safari/537.36" version="26.2.5">
  <diagram name="Page-1" id="94B1yERiti6Imz4_OIwz">
    <mxGraphModel dx="1218" dy="1213" grid="1" gridSize="10" guides="1" tooltips="1" connect="1" arrows="1" fold="1" page="0" pageScale="1" pageWidth="850" pageHeight="1100" math="0" shadow="0">
      <root>
        <mxCell id="0" />
        <mxCell id="1" parent="0" />
        <mxCell id="3b4mbC47o05VqwmVoVGR-10" style="edgeStyle=orthogonalEdgeStyle;rounded=0;orthogonalLoop=1;jettySize=auto;html=1;exitX=0.5;exitY=1;exitDx=0;exitDy=0;entryX=0.5;entryY=0;entryDx=0;entryDy=0;" edge="1" parent="1" source="3b4mbC47o05VqwmVoVGR-1" target="3b4mbC47o05VqwmVoVGR-2">
          <mxGeometry relative="1" as="geometry" />
        </mxCell>
        <mxCell id="3b4mbC47o05VqwmVoVGR-11" style="edgeStyle=orthogonalEdgeStyle;rounded=0;orthogonalLoop=1;jettySize=auto;html=1;exitX=0.5;exitY=1;exitDx=0;exitDy=0;entryX=0.5;entryY=0;entryDx=0;entryDy=0;" edge="1" parent="1" source="3b4mbC47o05VqwmVoVGR-1" target="3b4mbC47o05VqwmVoVGR-3">
          <mxGeometry relative="1" as="geometry" />
        </mxCell>
        <mxCell id="3b4mbC47o05VqwmVoVGR-1" value="User" style="rounded=1;whiteSpace=wrap;html=1;" vertex="1" parent="1">
          <mxGeometry x="360" y="-80" width="80" height="40" as="geometry" />
        </mxCell>
        <mxCell id="3b4mbC47o05VqwmVoVGR-2" value="Patient" style="rounded=1;whiteSpace=wrap;html=1;" vertex="1" parent="1">
          <mxGeometry x="200" y="10" width="80" height="40" as="geometry" />
        </mxCell>
        <mxCell id="3b4mbC47o05VqwmVoVGR-30" style="edgeStyle=orthogonalEdgeStyle;shape=connector;rounded=0;orthogonalLoop=1;jettySize=auto;html=1;exitX=1;exitY=0.5;exitDx=0;exitDy=0;entryX=0;entryY=0.5;entryDx=0;entryDy=0;strokeColor=default;align=center;verticalAlign=middle;fontFamily=Helvetica;fontSize=11;fontColor=default;labelBackgroundColor=default;startFill=0;endArrow=none;" edge="1" parent="1" source="3b4mbC47o05VqwmVoVGR-3" target="3b4mbC47o05VqwmVoVGR-29">
          <mxGeometry relative="1" as="geometry" />
        </mxCell>
        <mxCell id="3b4mbC47o05VqwmVoVGR-3" value="Doctor" style="rounded=1;whiteSpace=wrap;html=1;" vertex="1" parent="1">
          <mxGeometry x="520" y="10" width="80" height="40" as="geometry" />
        </mxCell>
        <mxCell id="3b4mbC47o05VqwmVoVGR-35" style="edgeStyle=orthogonalEdgeStyle;shape=connector;rounded=0;orthogonalLoop=1;jettySize=auto;html=1;exitX=0.5;exitY=1;exitDx=0;exitDy=0;entryX=0;entryY=0.25;entryDx=0;entryDy=0;strokeColor=default;align=center;verticalAlign=middle;fontFamily=Helvetica;fontSize=11;fontColor=default;labelBackgroundColor=default;startFill=0;endArrow=none;" edge="1" parent="1" source="3b4mbC47o05VqwmVoVGR-4" target="3b4mbC47o05VqwmVoVGR-1">
          <mxGeometry relative="1" as="geometry" />
        </mxCell>
        <mxCell id="3b4mbC47o05VqwmVoVGR-4" value="&lt;u&gt;userID&lt;/u&gt;" style="ellipse;whiteSpace=wrap;html=1;" vertex="1" parent="1">
          <mxGeometry x="250" y="-200" width="70" height="40" as="geometry" />
        </mxCell>
        <mxCell id="3b4mbC47o05VqwmVoVGR-32" style="edgeStyle=orthogonalEdgeStyle;shape=connector;rounded=0;orthogonalLoop=1;jettySize=auto;html=1;exitX=0.5;exitY=1;exitDx=0;exitDy=0;entryX=0.25;entryY=0;entryDx=0;entryDy=0;strokeColor=default;align=center;verticalAlign=middle;fontFamily=Helvetica;fontSize=11;fontColor=default;labelBackgroundColor=default;startFill=0;endArrow=none;" edge="1" parent="1" source="3b4mbC47o05VqwmVoVGR-5" target="3b4mbC47o05VqwmVoVGR-1">
          <mxGeometry relative="1" as="geometry" />
        </mxCell>
        <mxCell id="3b4mbC47o05VqwmVoVGR-5" value="Email" style="ellipse;whiteSpace=wrap;html=1;" vertex="1" parent="1">
          <mxGeometry x="330" y="-200" width="70" height="40" as="geometry" />
        </mxCell>
        <mxCell id="3b4mbC47o05VqwmVoVGR-33" style="edgeStyle=orthogonalEdgeStyle;shape=connector;rounded=0;orthogonalLoop=1;jettySize=auto;html=1;exitX=0.5;exitY=1;exitDx=0;exitDy=0;entryX=0.5;entryY=0;entryDx=0;entryDy=0;strokeColor=default;align=center;verticalAlign=middle;fontFamily=Helvetica;fontSize=11;fontColor=default;labelBackgroundColor=default;startFill=0;endArrow=none;" edge="1" parent="1" source="3b4mbC47o05VqwmVoVGR-6" target="3b4mbC47o05VqwmVoVGR-1">
          <mxGeometry relative="1" as="geometry" />
        </mxCell>
        <mxCell id="3b4mbC47o05VqwmVoVGR-6" value="Password" style="ellipse;whiteSpace=wrap;html=1;" vertex="1" parent="1">
          <mxGeometry x="410" y="-200" width="70" height="40" as="geometry" />
        </mxCell>
        <mxCell id="3b4mbC47o05VqwmVoVGR-34" style="edgeStyle=orthogonalEdgeStyle;shape=connector;rounded=0;orthogonalLoop=1;jettySize=auto;html=1;exitX=0.5;exitY=1;exitDx=0;exitDy=0;entryX=0.75;entryY=0;entryDx=0;entryDy=0;strokeColor=default;align=center;verticalAlign=middle;fontFamily=Helvetica;fontSize=11;fontColor=default;labelBackgroundColor=default;startFill=0;endArrow=none;" edge="1" parent="1" source="3b4mbC47o05VqwmVoVGR-7" target="3b4mbC47o05VqwmVoVGR-1">
          <mxGeometry relative="1" as="geometry">
            <Array as="points">
              <mxPoint x="525" y="-110" />
              <mxPoint x="420" y="-110" />
            </Array>
          </mxGeometry>
        </mxCell>
        <mxCell id="3b4mbC47o05VqwmVoVGR-7" value="Name" style="ellipse;whiteSpace=wrap;html=1;" vertex="1" parent="1">
          <mxGeometry x="490" y="-200" width="70" height="40" as="geometry" />
        </mxCell>
        <mxCell id="3b4mbC47o05VqwmVoVGR-27" style="edgeStyle=orthogonalEdgeStyle;shape=connector;rounded=0;orthogonalLoop=1;jettySize=auto;html=1;exitX=1;exitY=0.5;exitDx=0;exitDy=0;entryX=0;entryY=0.5;entryDx=0;entryDy=0;strokeColor=default;align=center;verticalAlign=middle;fontFamily=Helvetica;fontSize=11;fontColor=default;labelBackgroundColor=default;startFill=0;endArrow=none;" edge="1" parent="1" source="3b4mbC47o05VqwmVoVGR-9" target="3b4mbC47o05VqwmVoVGR-2">
          <mxGeometry relative="1" as="geometry" />
        </mxCell>
        <mxCell id="3b4mbC47o05VqwmVoVGR-9" value="Age" style="ellipse;whiteSpace=wrap;html=1;" vertex="1" parent="1">
          <mxGeometry x="80" y="10" width="70" height="40" as="geometry" />
        </mxCell>
        <mxCell id="3b4mbC47o05VqwmVoVGR-40" style="edgeStyle=orthogonalEdgeStyle;shape=connector;rounded=0;orthogonalLoop=1;jettySize=auto;html=1;exitX=1;exitY=0.75;exitDx=0;exitDy=0;entryX=0;entryY=0.5;entryDx=0;entryDy=0;strokeColor=default;align=center;verticalAlign=middle;fontFamily=Helvetica;fontSize=11;fontColor=default;labelBackgroundColor=default;startFill=0;endArrow=none;" edge="1" parent="1" source="3b4mbC47o05VqwmVoVGR-12" target="3b4mbC47o05VqwmVoVGR-39">
          <mxGeometry relative="1" as="geometry" />
        </mxCell>
        <mxCell id="3b4mbC47o05VqwmVoVGR-12" value="Drug" style="rounded=1;whiteSpace=wrap;html=1;" vertex="1" parent="1">
          <mxGeometry x="200" y="290" width="80" height="40" as="geometry" />
        </mxCell>
        <mxCell id="3b4mbC47o05VqwmVoVGR-36" style="edgeStyle=orthogonalEdgeStyle;shape=connector;rounded=0;orthogonalLoop=1;jettySize=auto;html=1;exitX=1;exitY=0.5;exitDx=0;exitDy=0;entryX=0;entryY=0.5;entryDx=0;entryDy=0;strokeColor=default;align=center;verticalAlign=middle;fontFamily=Helvetica;fontSize=11;fontColor=default;labelBackgroundColor=default;startFill=0;endArrow=none;" edge="1" parent="1" source="3b4mbC47o05VqwmVoVGR-13" target="3b4mbC47o05VqwmVoVGR-12">
          <mxGeometry relative="1" as="geometry" />
        </mxCell>
        <mxCell id="3b4mbC47o05VqwmVoVGR-13" value="&lt;u&gt;ID&lt;/u&gt;" style="ellipse;whiteSpace=wrap;html=1;" vertex="1" parent="1">
          <mxGeometry x="80" y="290" width="70" height="40" as="geometry" />
        </mxCell>
        <mxCell id="3b4mbC47o05VqwmVoVGR-15" style="edgeStyle=orthogonalEdgeStyle;rounded=0;orthogonalLoop=1;jettySize=auto;html=1;exitX=0;exitY=0.5;exitDx=0;exitDy=0;entryX=0.75;entryY=0;entryDx=0;entryDy=0;endArrow=none;startFill=0;" edge="1" parent="1" source="3b4mbC47o05VqwmVoVGR-14" target="3b4mbC47o05VqwmVoVGR-12">
          <mxGeometry relative="1" as="geometry" />
        </mxCell>
        <mxCell id="3b4mbC47o05VqwmVoVGR-16" style="edgeStyle=orthogonalEdgeStyle;shape=connector;rounded=0;orthogonalLoop=1;jettySize=auto;html=1;exitX=1;exitY=0.5;exitDx=0;exitDy=0;entryX=0.25;entryY=1;entryDx=0;entryDy=0;strokeColor=default;align=center;verticalAlign=middle;fontFamily=Helvetica;fontSize=11;fontColor=default;labelBackgroundColor=default;startFill=0;endArrow=none;" edge="1" parent="1" source="3b4mbC47o05VqwmVoVGR-14" target="3b4mbC47o05VqwmVoVGR-3">
          <mxGeometry relative="1" as="geometry" />
        </mxCell>
        <mxCell id="3b4mbC47o05VqwmVoVGR-31" style="edgeStyle=orthogonalEdgeStyle;shape=connector;rounded=0;orthogonalLoop=1;jettySize=auto;html=1;exitX=0;exitY=0.5;exitDx=0;exitDy=0;entryX=1;entryY=0.5;entryDx=0;entryDy=0;strokeColor=default;align=center;verticalAlign=middle;fontFamily=Helvetica;fontSize=11;fontColor=default;labelBackgroundColor=default;startFill=0;endArrow=none;" edge="1" parent="1" source="3b4mbC47o05VqwmVoVGR-14" target="3b4mbC47o05VqwmVoVGR-2">
          <mxGeometry relative="1" as="geometry" />
        </mxCell>
        <mxCell id="3b4mbC47o05VqwmVoVGR-14" value="Can&lt;div&gt;See&lt;/div&gt;" style="rhombus;whiteSpace=wrap;html=1;" vertex="1" parent="1">
          <mxGeometry x="365" y="140" width="70" height="70" as="geometry" />
        </mxCell>
        <mxCell id="3b4mbC47o05VqwmVoVGR-19" style="edgeStyle=orthogonalEdgeStyle;shape=connector;rounded=0;orthogonalLoop=1;jettySize=auto;html=1;exitX=0.5;exitY=0;exitDx=0;exitDy=0;entryX=0.5;entryY=1;entryDx=0;entryDy=0;strokeColor=default;align=center;verticalAlign=middle;fontFamily=Helvetica;fontSize=11;fontColor=default;labelBackgroundColor=default;startFill=0;endArrow=none;" edge="1" parent="1" source="3b4mbC47o05VqwmVoVGR-18" target="3b4mbC47o05VqwmVoVGR-2">
          <mxGeometry relative="1" as="geometry" />
        </mxCell>
        <mxCell id="3b4mbC47o05VqwmVoVGR-20" style="edgeStyle=orthogonalEdgeStyle;shape=connector;rounded=0;orthogonalLoop=1;jettySize=auto;html=1;exitX=0.5;exitY=1;exitDx=0;exitDy=0;entryX=0.5;entryY=0;entryDx=0;entryDy=0;strokeColor=default;align=center;verticalAlign=middle;fontFamily=Helvetica;fontSize=11;fontColor=default;labelBackgroundColor=default;startFill=0;endArrow=none;" edge="1" parent="1" source="3b4mbC47o05VqwmVoVGR-18" target="3b4mbC47o05VqwmVoVGR-12">
          <mxGeometry relative="1" as="geometry" />
        </mxCell>
        <mxCell id="3b4mbC47o05VqwmVoVGR-18" value="Takes" style="rhombus;whiteSpace=wrap;html=1;" vertex="1" parent="1">
          <mxGeometry x="205" y="100" width="70" height="70" as="geometry" />
        </mxCell>
        <mxCell id="3b4mbC47o05VqwmVoVGR-25" style="edgeStyle=orthogonalEdgeStyle;shape=connector;rounded=0;orthogonalLoop=1;jettySize=auto;html=1;exitX=1;exitY=0.5;exitDx=0;exitDy=0;entryX=0;entryY=0;entryDx=0;entryDy=0;strokeColor=default;align=center;verticalAlign=middle;fontFamily=Helvetica;fontSize=11;fontColor=default;labelBackgroundColor=default;startFill=0;endArrow=none;" edge="1" parent="1" source="3b4mbC47o05VqwmVoVGR-21" target="3b4mbC47o05VqwmVoVGR-18">
          <mxGeometry relative="1" as="geometry" />
        </mxCell>
        <mxCell id="3b4mbC47o05VqwmVoVGR-21" value="Start Date" style="ellipse;whiteSpace=wrap;html=1;" vertex="1" parent="1">
          <mxGeometry x="80" y="70" width="70" height="40" as="geometry" />
        </mxCell>
        <mxCell id="3b4mbC47o05VqwmVoVGR-24" style="edgeStyle=orthogonalEdgeStyle;shape=connector;rounded=0;orthogonalLoop=1;jettySize=auto;html=1;exitX=1;exitY=0.5;exitDx=0;exitDy=0;entryX=0;entryY=0.5;entryDx=0;entryDy=0;strokeColor=default;align=center;verticalAlign=middle;fontFamily=Helvetica;fontSize=11;fontColor=default;labelBackgroundColor=default;startFill=0;endArrow=none;" edge="1" parent="1" source="3b4mbC47o05VqwmVoVGR-22" target="3b4mbC47o05VqwmVoVGR-18">
          <mxGeometry relative="1" as="geometry" />
        </mxCell>
        <mxCell id="3b4mbC47o05VqwmVoVGR-22" value="End Date" style="ellipse;whiteSpace=wrap;html=1;" vertex="1" parent="1">
          <mxGeometry x="80" y="115" width="70" height="40" as="geometry" />
        </mxCell>
        <mxCell id="3b4mbC47o05VqwmVoVGR-26" style="edgeStyle=orthogonalEdgeStyle;shape=connector;rounded=0;orthogonalLoop=1;jettySize=auto;html=1;exitX=1;exitY=0.5;exitDx=0;exitDy=0;entryX=0;entryY=1;entryDx=0;entryDy=0;strokeColor=default;align=center;verticalAlign=middle;fontFamily=Helvetica;fontSize=11;fontColor=default;labelBackgroundColor=default;startFill=0;endArrow=none;" edge="1" parent="1" source="3b4mbC47o05VqwmVoVGR-23" target="3b4mbC47o05VqwmVoVGR-18">
          <mxGeometry relative="1" as="geometry" />
        </mxCell>
        <mxCell id="3b4mbC47o05VqwmVoVGR-23" value="Every&lt;br&gt;# of Days" style="ellipse;whiteSpace=wrap;html=1;" vertex="1" parent="1">
          <mxGeometry x="80" y="160" width="70" height="40" as="geometry" />
        </mxCell>
        <mxCell id="3b4mbC47o05VqwmVoVGR-29" value="Profession" style="ellipse;whiteSpace=wrap;html=1;" vertex="1" parent="1">
          <mxGeometry x="680" y="10" width="70" height="40" as="geometry" />
        </mxCell>
        <mxCell id="3b4mbC47o05VqwmVoVGR-38" style="edgeStyle=orthogonalEdgeStyle;shape=connector;rounded=0;orthogonalLoop=1;jettySize=auto;html=1;exitX=1;exitY=0.5;exitDx=0;exitDy=0;entryX=0;entryY=0.25;entryDx=0;entryDy=0;strokeColor=default;align=center;verticalAlign=middle;fontFamily=Helvetica;fontSize=11;fontColor=default;labelBackgroundColor=default;startFill=0;endArrow=none;" edge="1" parent="1" source="3b4mbC47o05VqwmVoVGR-37" target="3b4mbC47o05VqwmVoVGR-2">
          <mxGeometry relative="1" as="geometry" />
        </mxCell>
        <mxCell id="3b4mbC47o05VqwmVoVGR-37" value="Allergies" style="ellipse;shape=doubleEllipse;margin=3;whiteSpace=wrap;html=1;align=center;fontFamily=Helvetica;fontSize=11;fontColor=default;labelBackgroundColor=default;" vertex="1" parent="1">
          <mxGeometry x="80" y="-40" width="70" height="40" as="geometry" />
        </mxCell>
        <mxCell id="3b4mbC47o05VqwmVoVGR-41" style="edgeStyle=orthogonalEdgeStyle;shape=connector;rounded=0;orthogonalLoop=1;jettySize=auto;html=1;exitX=0.5;exitY=0;exitDx=0;exitDy=0;entryX=1;entryY=0.25;entryDx=0;entryDy=0;strokeColor=default;align=center;verticalAlign=middle;fontFamily=Helvetica;fontSize=11;fontColor=default;labelBackgroundColor=default;startFill=0;endArrow=none;" edge="1" parent="1" source="3b4mbC47o05VqwmVoVGR-39" target="3b4mbC47o05VqwmVoVGR-12">
          <mxGeometry relative="1" as="geometry">
            <Array as="points">
              <mxPoint x="335" y="275" />
              <mxPoint x="335" y="300" />
            </Array>
          </mxGeometry>
        </mxCell>
        <mxCell id="3b4mbC47o05VqwmVoVGR-39" value="Can&#39;t&lt;div&gt;Mix&lt;/div&gt;" style="rhombus;whiteSpace=wrap;html=1;" vertex="1" parent="1">
          <mxGeometry x="390" y="275" width="70" height="70" as="geometry" />
        </mxCell>
      </root>
    </mxGraphModel>
  </diagram>
</mxfile>
